<svg version="1.1" xmlns="http://www.w3.org/2000/svg" xmlns:xlink="http://www.w3.org/1999/xlink" width="293" height="565"><defs/><g><g transform="translate(-222,-358) scale(1,1)"><rect fill="#C0C0C0" stroke="none" x="391" y="375" width="121" height="87" opacity="0.2"/></g><g transform="translate(-222,-358) scale(1,1)"><rect fill="#ffffff" stroke="none" x="384" y="368" width="121" height="87"/></g><g transform="translate(-222,-358) scale(1,1)"><path fill="none" stroke="#000000" d="M 384 368 L 505 368 L 505 455 L 384 455 L 384 368 Z Z" stroke-miterlimit="10"/></g><g transform="translate(-222,-358) scale(1,1)"><path fill="none" stroke="#000000" d="M 384 393 L 505 393" stroke-miterlimit="10"/></g><g transform="translate(-222,-358) scale(1,1)"><path fill="none" stroke="#000000" d="M 384 446 L 505 446" stroke-miterlimit="10"/></g><g transform="translate(-222,-358) scale(1,1)"><g><path fill="none" stroke="none"/><text fill="#000000" stroke="none" font-family="Arial" font-size="13px" font-style="normal" font-weight="bold" text-decoration="none" x="414" y="387.5">Kunstwerk</text></g></g><g transform="translate(-222,-358) scale(1,1)"><g><path fill="none" stroke="none"/><text fill="#000000" stroke="none" font-family="Arial" font-size="13px" font-style="normal" font-weight="normal" text-decoration="none" x="389" y="410.5">+titel: string</text></g></g><g transform="translate(-222,-358) scale(1,1)"><g><path fill="none" stroke="none"/><text fill="#000000" stroke="none" font-family="Arial" font-size="13px" font-style="normal" font-weight="normal" text-decoration="none" x="389" y="425.5">+jaar: string</text></g></g><g transform="translate(-222,-358) scale(1,1)"><g><path fill="none" stroke="none"/><text fill="#000000" stroke="none" font-family="Arial" font-size="13px" font-style="normal" font-weight="normal" text-decoration="none" x="389" y="440.5">+kunstenaar: string</text></g></g><g transform="translate(-222,-358) scale(1,1)"><rect fill="#C0C0C0" stroke="none" x="239" y="503" width="116" height="57" opacity="0.2"/></g><g transform="translate(-222,-358) scale(1,1)"><rect fill="#ffffff" stroke="none" x="232" y="496" width="116" height="57"/></g><g transform="translate(-222,-358) scale(1,1)"><path fill="none" stroke="#000000" d="M 232 496 L 348 496 L 348 553 L 232 553 L 232 496 Z Z" stroke-miterlimit="10"/></g><g transform="translate(-222,-358) scale(1,1)"><path fill="none" stroke="#000000" d="M 232 521 L 348 521" stroke-miterlimit="10"/></g><g transform="translate(-222,-358) scale(1,1)"><path fill="none" stroke="#000000" d="M 232 544 L 348 544" stroke-miterlimit="10"/></g><g transform="translate(-222,-358) scale(1,1)"><g><path fill="none" stroke="none"/><text fill="#000000" stroke="none" font-family="Arial" font-size="13px" font-style="normal" font-weight="bold" text-decoration="none" x="245" y="515.5">Beeldhouwwerk</text></g></g><g transform="translate(-222,-358) scale(1,1)"><g><path fill="none" stroke="none"/><text fill="#000000" stroke="none" font-family="Arial" font-size="13px" font-style="normal" font-weight="normal" text-decoration="none" x="237" y="538.5">+afbeelding: string</text></g></g><g transform="translate(-222,-358) scale(1,1)"><rect fill="#C0C0C0" stroke="none" x="239" y="575" width="116" height="57" opacity="0.2"/></g><g transform="translate(-222,-358) scale(1,1)"><rect fill="#ffffff" stroke="none" x="232" y="568" width="116" height="57"/></g><g transform="translate(-222,-358) scale(1,1)"><path fill="none" stroke="#000000" d="M 232 568 L 348 568 L 348 625 L 232 625 L 232 568 Z Z" stroke-miterlimit="10"/></g><g transform="translate(-222,-358) scale(1,1)"><path fill="none" stroke="#000000" d="M 232 593 L 348 593" stroke-miterlimit="10"/></g><g transform="translate(-222,-358) scale(1,1)"><path fill="none" stroke="#000000" d="M 232 616 L 348 616" stroke-miterlimit="10"/></g><g transform="translate(-222,-358) scale(1,1)"><g><path fill="none" stroke="none"/><text fill="#000000" stroke="none" font-family="Arial" font-size="13px" font-style="normal" font-weight="bold" text-decoration="none" x="275" y="587.5">Dans</text></g></g><g transform="translate(-222,-358) scale(1,1)"><g><path fill="none" stroke="none"/><text fill="#000000" stroke="none" font-family="Arial" font-size="13px" font-style="normal" font-weight="normal" text-decoration="none" x="237" y="610.5">+afbeelding: string</text></g></g><g transform="translate(-222,-358) scale(1,1)"><rect fill="#C0C0C0" stroke="none" x="239" y="647" width="116" height="57" opacity="0.2"/></g><g transform="translate(-222,-358) scale(1,1)"><rect fill="#ffffff" stroke="none" x="232" y="640" width="116" height="57"/></g><g transform="translate(-222,-358) scale(1,1)"><path fill="none" stroke="#000000" d="M 232 640 L 348 640 L 348 697 L 232 697 L 232 640 Z Z" stroke-miterlimit="10"/></g><g transform="translate(-222,-358) scale(1,1)"><path fill="none" stroke="#000000" d="M 232 665 L 348 665" stroke-miterlimit="10"/></g><g transform="translate(-222,-358) scale(1,1)"><path fill="none" stroke="#000000" d="M 232 688 L 348 688" stroke-miterlimit="10"/></g><g transform="translate(-222,-358) scale(1,1)"><g><path fill="none" stroke="none"/><text fill="#000000" stroke="none" font-family="Arial" font-size="13px" font-style="normal" font-weight="bold" text-decoration="none" x="277" y="659.5">Foto</text></g></g><g transform="translate(-222,-358) scale(1,1)"><g><path fill="none" stroke="none"/><text fill="#000000" stroke="none" font-family="Arial" font-size="13px" font-style="normal" font-weight="normal" text-decoration="none" x="237" y="682.5">+afbeelding: string</text></g></g><g transform="translate(-222,-358) scale(1,1)"><rect fill="#C0C0C0" stroke="none" x="239" y="719" width="116" height="57" opacity="0.2"/></g><g transform="translate(-222,-358) scale(1,1)"><rect fill="#ffffff" stroke="none" x="232" y="712" width="116" height="57"/></g><g transform="translate(-222,-358) scale(1,1)"><path fill="none" stroke="#000000" d="M 232 712 L 348 712 L 348 769 L 232 769 L 232 712 Z Z" stroke-miterlimit="10"/></g><g transform="translate(-222,-358) scale(1,1)"><path fill="none" stroke="#000000" d="M 232 737 L 348 737" stroke-miterlimit="10"/></g><g transform="translate(-222,-358) scale(1,1)"><path fill="none" stroke="#000000" d="M 232 760 L 348 760" stroke-miterlimit="10"/></g><g transform="translate(-222,-358) scale(1,1)"><g><path fill="none" stroke="none"/><text fill="#000000" stroke="none" font-family="Arial" font-size="13px" font-style="normal" font-weight="bold" text-decoration="none" x="263.5" y="731.5">Schilderij</text></g></g><g transform="translate(-222,-358) scale(1,1)"><g><path fill="none" stroke="none"/><text fill="#000000" stroke="none" font-family="Arial" font-size="13px" font-style="normal" font-weight="normal" text-decoration="none" x="237" y="754.5">+afbeelding: string</text></g></g><g transform="translate(-222,-358) scale(1,1)"><rect fill="#C0C0C0" stroke="none" x="239" y="791" width="116" height="57" opacity="0.2"/></g><g transform="translate(-222,-358) scale(1,1)"><rect fill="#ffffff" stroke="none" x="232" y="784" width="116" height="57"/></g><g transform="translate(-222,-358) scale(1,1)"><path fill="none" stroke="#000000" d="M 232 784 L 348 784 L 348 841 L 232 841 L 232 784 Z Z" stroke-miterlimit="10"/></g><g transform="translate(-222,-358) scale(1,1)"><path fill="none" stroke="#000000" d="M 232 809 L 348 809" stroke-miterlimit="10"/></g><g transform="translate(-222,-358) scale(1,1)"><path fill="none" stroke="#000000" d="M 232 832 L 348 832" stroke-miterlimit="10"/></g><g transform="translate(-222,-358) scale(1,1)"><g><path fill="none" stroke="none"/><text fill="#000000" stroke="none" font-family="Arial" font-size="13px" font-style="normal" font-weight="bold" text-decoration="none" x="277.5" y="803.5">Film</text></g></g><g transform="translate(-222,-358) scale(1,1)"><g><path fill="none" stroke="none"/><text fill="#000000" stroke="none" font-family="Arial" font-size="13px" font-style="normal" font-weight="normal" text-decoration="none" x="237" y="826.5">+afbeelding: string</text></g></g><g transform="translate(-222,-358) scale(1,1)"><rect fill="#C0C0C0" stroke="none" x="239" y="863" width="116" height="57" opacity="0.2"/></g><g transform="translate(-222,-358) scale(1,1)"><rect fill="#ffffff" stroke="none" x="232" y="856" width="116" height="57"/></g><g transform="translate(-222,-358) scale(1,1)"><path fill="none" stroke="#000000" d="M 232 856 L 348 856 L 348 913 L 232 913 L 232 856 Z Z" stroke-miterlimit="10"/></g><g transform="translate(-222,-358) scale(1,1)"><path fill="none" stroke="#000000" d="M 232 881 L 348 881" stroke-miterlimit="10"/></g><g transform="translate(-222,-358) scale(1,1)"><path fill="none" stroke="#000000" d="M 232 904 L 348 904" stroke-miterlimit="10"/></g><g transform="translate(-222,-358) scale(1,1)"><g><path fill="none" stroke="none"/><text fill="#000000" stroke="none" font-family="Arial" font-size="13px" font-style="normal" font-weight="bold" text-decoration="none" x="275" y="875.5">Vaas</text></g></g><g transform="translate(-222,-358) scale(1,1)"><g><path fill="none" stroke="none"/><text fill="#000000" stroke="none" font-family="Arial" font-size="13px" font-style="normal" font-weight="normal" text-decoration="none" x="237" y="898.5">+afbeelding: string</text></g></g></g></svg>